<?xml version="1.0" standalone="no"?>
<!DOCTYPE svg PUBLIC "-//W3C//DTD SVG 20010904//EN"
 "http://www.w3.org/TR/2001/REC-SVG-20010904/DTD/svg10.dtd">
<svg version="1.0" xmlns="http://www.w3.org/2000/svg"
 width="452.000000pt" height="452.000000pt" viewBox="0 0 452.000000 452.000000"
 preserveAspectRatio="xMidYMid meet">
<metadata>
Created by potrace 1.14, written by Peter Selinger 2001-2017
</metadata>
<g transform="translate(0.000000,452.000000) scale(0.100000,-0.100000)"
fill="#000000" stroke="none">
<path d="M3835 3473 c-33 -20 -132 -90 -219 -156 -88 -66 -172 -123 -186 -127
-49 -14 -102 -1 -229 57 -132 61 -388 141 -506 158 -22 3 -65 10 -95 15 -157
26 -386 34 -486 15 -173 -31 -386 -123 -519 -222 -160 -120 -299 -286 -417
-498 -55 -100 -157 -314 -157 -330 0 -3 -7 -18 -15 -33 -9 -15 -43 -92 -77
-172 -69 -165 -69 -166 -139 -315 -28 -60 -62 -137 -75 -170 -12 -33 -46 -109
-75 -170 -185 -389 -192 -428 -86 -490 28 -16 58 -25 96 -26 30 -1 462 -1 960
0 991 2 935 -1 1140 63 238 75 375 182 469 366 66 129 129 319 137 415 9 93 9
280 0 335 -3 23 -8 59 -10 80 -12 99 -95 274 -176 370 -106 126 -248 217 -385
247 -126 28 -273 36 -390 22 -191 -24 -396 -116 -508 -229 -49 -50 -125 -176
-148 -246 -23 -69 -36 -256 -18 -267 4 -3 6 -12 3 -20 -6 -15 42 -183 58 -202
6 -7 7 -13 3 -13 -9 0 65 -134 77 -138 4 -2 8 -8 8 -14 0 -19 112 -119 169
-151 172 -97 327 -106 519 -30 127 51 198 111 250 216 52 102 60 150 45 268
-15 114 -43 179 -106 240 -72 70 -131 83 -175 36 -35 -37 -34 -71 3 -145 73
-143 67 -344 -11 -413 -63 -55 -186 -80 -284 -57 -147 34 -269 130 -332 260
-46 94 -53 123 -52 223 0 63 7 95 29 150 89 220 300 364 544 370 51 1 112 -2
135 -7 22 -5 51 -12 64 -14 32 -6 123 -43 150 -60 12 -8 22 -11 22 -7 0 5 4 4
8 -2 4 -5 24 -19 46 -30 60 -31 201 -180 212 -225 0 -3 3 -12 7 -20 94 -242
84 -588 -24 -801 -83 -166 -203 -276 -372 -343 -115 -45 -170 -54 -317 -49
-325 10 -583 110 -780 302 -121 119 -212 261 -254 401 -9 30 -21 69 -26 85
-25 79 -32 243 -17 365 24 189 93 361 202 500 40 51 172 176 220 209 113 76
238 137 325 156 8 2 49 11 90 20 41 9 84 19 95 22 11 3 76 6 145 8 100 2 147
-2 239 -21 63 -12 121 -26 130 -30 9 -4 21 -8 26 -9 52 -12 317 -105 351 -123
10 -5 21 -10 24 -10 3 0 19 -6 35 -12 67 -26 222 -73 252 -76 33 -3 34 -2 155
89 72 55 70 54 196 142 51 36 95 65 98 65 3 0 19 13 37 30 18 16 35 30 38 30
14 0 39 71 35 97 -7 37 -59 83 -94 83 -15 0 -54 -16 -87 -37z m-2681 -1453
c22 -276 167 -547 381 -716 28 -21 52 -42 53 -46 2 -5 7 -8 12 -8 4 0 34 -16
66 -35 32 -19 66 -35 75 -35 10 0 21 -4 24 -10 3 -5 -21 -9 -62 -9 -37 0 -178
0 -313 1 -135 0 -256 0 -270 0 -14 0 -83 -1 -155 -3 -105 -2 -136 1 -162 14
-63 33 -62 50 15 210 61 127 79 167 97 214 30 83 226 504 231 499 1 -1 4 -35
8 -76z"/>
</g>
</svg>
